<mxfile host="app.diagrams.net" modified="2021-12-21T09:43:55.474Z" agent="5.0 (Macintosh; Intel Mac OS X 10_15_7) AppleWebKit/537.36 (KHTML, like Gecko) Chrome/96.0.4664.110 Safari/537.36" etag="GVziKiuRveSUE1zPAQNj" version="16.0.0" type="github">
  <diagram id="c8crNMD5LInOO5HtlZF0" name="Page-1">
    <mxGraphModel dx="2065" dy="1129" grid="1" gridSize="10" guides="1" tooltips="1" connect="1" arrows="1" fold="1" page="1" pageScale="1" pageWidth="827" pageHeight="1169" math="0" shadow="0">
      <root>
        <mxCell id="0" />
        <mxCell id="1" parent="0" />
        <mxCell id="jkadczdA4PlTiwIz67n_-1" value="" style="shape=callout;whiteSpace=wrap;html=1;perimeter=calloutPerimeter;" vertex="1" parent="1">
          <mxGeometry x="350" y="530" width="120" height="80" as="geometry" />
        </mxCell>
        <mxCell id="jkadczdA4PlTiwIz67n_-2" value="" style="verticalLabelPosition=bottom;verticalAlign=top;html=1;shape=mxgraph.basic.donut;dx=25;" vertex="1" parent="1">
          <mxGeometry x="70" y="170" width="100" height="100" as="geometry" />
        </mxCell>
        <mxCell id="jkadczdA4PlTiwIz67n_-4" style="edgeStyle=orthogonalEdgeStyle;rounded=0;orthogonalLoop=1;jettySize=auto;html=1;" edge="1" parent="1" source="jkadczdA4PlTiwIz67n_-3">
          <mxGeometry relative="1" as="geometry">
            <mxPoint x="180" y="270" as="targetPoint" />
          </mxGeometry>
        </mxCell>
        <mxCell id="jkadczdA4PlTiwIz67n_-6" value="" style="edgeStyle=orthogonalEdgeStyle;rounded=0;orthogonalLoop=1;jettySize=auto;html=1;curved=1;" edge="1" parent="1" source="jkadczdA4PlTiwIz67n_-3" target="jkadczdA4PlTiwIz67n_-5">
          <mxGeometry relative="1" as="geometry">
            <Array as="points">
              <mxPoint x="180" y="560" />
              <mxPoint x="380" y="560" />
            </Array>
          </mxGeometry>
        </mxCell>
        <mxCell id="jkadczdA4PlTiwIz67n_-3" value="" style="shape=tape;whiteSpace=wrap;html=1;size=0.2;" vertex="1" parent="1">
          <mxGeometry x="120" y="320" width="120" height="100" as="geometry" />
        </mxCell>
        <mxCell id="jkadczdA4PlTiwIz67n_-5" value="" style="shape=parallelogram;perimeter=parallelogramPerimeter;whiteSpace=wrap;html=1;fixedSize=1;" vertex="1" parent="1">
          <mxGeometry x="320" y="340" width="120" height="60" as="geometry" />
        </mxCell>
      </root>
    </mxGraphModel>
  </diagram>
</mxfile>
